<?xml version="1.0" encoding="utf-8" standalone="yes"?>
<svg xmlns="http://www.w3.org/2000/svg" xmlns:xlink="http://www.w3.org/1999/xlink"  version="1.1" >
<g transform="translate(-12, -139)">
<path style="fill:#f6f6f6;" d="M24,140.7 c0,-0.4 -0.3,-0.6 -0.6,-0.6 H13.2 c-0.4,0 -0.6,0.3 -0.6,0.6 V168 c0,0.6 0.7,0.9 1.1,0.4 l0,0 c2,-2.5 4.5,-4.6 7.2,-6.2 c0.8,-0.5 1.6,-1 2.5,-1.5 c0.4,-0.2 0.6,-0.6 0.6,-1.1 V140.7 "></path>
<path style="fill:#f6f6f6;" d="M57.4,140.5 c-11.4,10.6 -23.6,19.4 -36,26.1 c-5.4,3 -8.8,8.6 -8.8,14.8 v12.4 c0,0.4 0.3,0.6 0.6,0.6 h10.1 c0.4,0 0.6,-0.3 0.6,-0.6 v-12.3 c0,-1.7 0.9,-3.3 2.4,-4.1 c0.9,-0.5 1.8,-1 2.7,-1.6 c5.3,-3.1 10.6,-6.6 15.9,-10.5 c12.1,-8.9 23.2,-19.7 27.3,-24.3 c0.4,-0.4 0.1,-1.1 -0.5,-1.1 H58.5 C58.2,140 57.7,140.2 57.4,140.5 "></path>
<path style="fill:#f6f6f6;" d="M67.1,194.5 H57 c-0.3,0 -0.6,-0.3 -0.6,-0.6 c-0.3,-10 -8.6,-18 -18.6,-18 h-9.2 v-11.4 h9.2 c16.4,0 29.7,13.1 30.1,29.4 C67.8,194.2 67.5,194.5 67.1,194.5 "></path>
</g>
</svg>